<svg id="logo_original_resized" data-name="logo original resized" xmlns="http://www.w3.org/2000/svg" viewBox="0 0 797.42 162.56"><defs><style>.cls-1,.cls-2{fill:#27262c;stroke-miterlimit:10;stroke-width:5.52px;}.cls-1{stroke:#27262c;}.cls-2{stroke:#fff;}.cls-3{fill:none;}</style></defs><title>neue_logo_final_resized</title><g id="n"><path class="cls-1" d="M1277,1323.67h-23.65V1246a32.45,32.45,0,0,0-32.46-32.45h-3.93a32.45,32.45,0,0,0-32.45,32.45v77.69h-23.65v-66.06a67.72,67.72,0,0,1,67.72-67.73h2.81a45.61,45.61,0,0,1,45.61,45.6Z" transform="translate(-1118.46 -1174.9)"/><line class="cls-2" x1="54.18" y1="14.75" x2="54.18" y2="148.38"/><rect class="cls-1" x="42.36" y="14.75" width="23.65" height="133.62"/></g><g id="equal"><rect class="cls-1" x="251.81" y="15.4" width="100.03" height="23.65"/><rect class="cls-1" x="251.81" y="70.66" width="100.03" height="23.65"/><rect class="cls-1" x="251.81" y="139.92" width="100.03" height="8.84"/></g><g id="u"><path class="cls-1" d="M1563.22,1189.69h23.65v77.69a32.45,32.45,0,0,0,32.45,32.45h3.94a32.45,32.45,0,0,0,32.45-32.45v-77.69h23.65v66.06a67.73,67.73,0,0,1-67.73,67.73h-2.81a45.6,45.6,0,0,1-45.6-45.6Z" transform="translate(-1118.46 -1174.9)"/><line class="cls-2" x1="549.07" y1="148.81" x2="549.07" y2="15.19"/><rect class="cls-1" x="537.25" y="15.19" width="23.65" height="133.62"/></g><g id="e"><g id="vertical"><line class="cls-2" x1="666.43" y1="142.77" x2="666.43" y2="16.89"/><rect class="cls-1" x="655.04" y="16.89" width="22.43" height="125.89"/></g><g id="horizontal"><rect class="cls-1" x="655.04" y="14.92" width="100.03" height="23.65"/><rect class="cls-1" x="655.04" y="70.04" width="100.03" height="23.65"/><rect class="cls-1" x="655.04" y="125.17" width="100.03" height="23.65"/></g></g><rect id="center_box" data-name="center box" class="cls-3" width="797.42" height="162.56"/></svg>