<svg id="logo_original_resized" data-name="logo original resized" xmlns="http://www.w3.org/2000/svg" viewBox="0 0 333 67.89"><defs><style>.cls-1,.cls-2{fill:#27262c;stroke-miterlimit:10;stroke-width:2.3px;}.cls-1{stroke:#27262c;}.cls-2{stroke:#fff;}.cls-3{fill:none;}</style></defs><title>neue_logo_final_resized_2</title><g id="n"><path class="cls-1" d="M3347.86,57.08H3338V24.64a13.56,13.56,0,0,0-13.55-13.56h-1.65a13.56,13.56,0,0,0-13.55,13.56V57.08h-9.88V29.49a28.29,28.29,0,0,1,28.29-28.28h1.17a19,19,0,0,1,19,19Z" transform="translate(-3281.68 5.05)"/><line class="cls-2" x1="22.63" y1="6.16" x2="22.63" y2="61.96"/><rect class="cls-1" x="17.69" y="6.16" width="9.88" height="55.8"/></g><g id="equal"><rect class="cls-1" x="105.15" y="6.43" width="41.77" height="9.88"/><rect class="cls-1" x="105.15" y="29.51" width="41.77" height="9.88"/><rect class="cls-1" x="105.15" y="58.43" width="41.77" height="3.69"/></g><g id="u"><path class="cls-1" d="M3467.4,1.13h9.88V33.57a13.55,13.55,0,0,0,13.55,13.55h1.65A13.55,13.55,0,0,0,3506,33.57V1.13h9.87V28.72A28.28,28.28,0,0,1,3487.62,57h-1.17a19,19,0,0,1-19-19Z" transform="translate(-3281.68 5.05)"/><line class="cls-2" x1="229.29" y1="62.14" x2="229.29" y2="6.34"/><rect class="cls-1" x="224.35" y="6.34" width="9.88" height="55.8"/></g><g id="e"><g id="vertical"><line class="cls-2" x1="278.3" y1="59.62" x2="278.3" y2="7.05"/><rect class="cls-1" x="273.54" y="7.05" width="9.37" height="52.57"/></g><g id="horizontal"><rect class="cls-1" x="273.54" y="6.23" width="41.77" height="9.88"/><rect class="cls-1" x="273.54" y="29.25" width="41.77" height="9.88"/><rect class="cls-1" x="273.54" y="52.27" width="41.77" height="9.88"/></g></g><rect id="center_box" data-name="center box" class="cls-3" width="333" height="67.89"/></svg>